<?xml version="1.0" encoding="UTF-8"?>
<svg width="68px" height="68px" viewBox="0 0 68 68" version="1.1" xmlns="http://www.w3.org/2000/svg" xmlns:xlink="http://www.w3.org/1999/xlink">
    <title>编组 2备份</title>
    <g id="系统管理" stroke="none" stroke-width="1" fill="none" fill-rule="evenodd">
        <g id="编组-2备份">
            <rect id="矩形" fill="#FFFFFF" x="0.666666667" y="0.666666667" width="66.6666667" height="66.6666667" rx="5.33333333"></rect>
            <g id="编组" transform="translate(8.000000, 13.333333)">
                <rect id="矩形" fill="#FFFFFF" x="-1.02633951e-13" y="2.36847579e-14" width="52.7222222" height="44.3055556"></rect>
                <path d="M23.1659214,3.81944444 C29.044446,3.81944444 34.0139012,7.73690716 35.6378379,13.1195624 C35.6726637,13.2083117 35.6995068,13.3008634 35.7185903,13.3962424 C35.7240618,13.4180712 35.7299576,13.4395072 35.7358007,13.4609651 C35.7449484,13.5519905 35.7526004,13.645678 35.7526004,13.7411643 C35.7526004,14.7008708 34.9796239,15.4788666 34.026109,15.4788666 C33.0725942,15.4788666 32.2996176,14.7008708 32.2996176,13.7411643 L32.3024821,13.8168396 C32.3015091,13.8105457 32.3005543,13.8040056 32.2996176,13.7972192 C32.2900238,13.7277097 32.2727105,13.6473524 32.2476779,13.5561471 L32.207,13.4214444 L32.0827415,13.110702 C31.5928346,11.9554166 30.8877734,10.9146784 30.0182308,10.0394895 C28.2645719,8.27444315 25.8419147,7.18273931 23.1659214,7.18273931 C21.1658557,7.18273931 19.3068808,7.79173248 17.763554,8.83738799 C16.1716821,9.91593442 14.9140123,11.4565192 14.1826096,13.2691291 C13.9505017,13.8443541 13.7753635,14.4371356 13.6570019,15.0388125 C13.0508521,15.0606028 12.4422016,15.1402459 11.8388461,15.280554 C9.66853755,15.7852512 7.7787714,17.025578 6.43855771,18.723718 C5.12522968,20.3877919 4.34159619,22.4938855 4.34159619,24.7839824 C4.34159619,27.4773523 5.42625678,29.9157411 7.17991569,31.6807874 C8.93357461,33.4458337 11.3562318,34.5375376 14.0322251,34.5375376 L14.254,34.5324444 L14.2549982,34.5375376 L43.0932626,34.5375376 C44.0220109,34.5375376 44.7749101,35.2904368 44.7749101,36.219185 C44.7749101,37.1479332 44.0220109,37.9008324 43.0932626,37.9008324 L14.7258595,37.9008324 C14.6723816,37.9008324 14.6197643,37.8971475 14.5682478,37.8900176 C14.3908858,37.8971695 14.2119805,37.9008324 14.0322251,37.9008324 C6.83472594,37.9008324 1,32.0282186 1,24.7839824 C1,18.5592391 5.30802442,13.3472225 11.0869138,12.0035151 C13.0234763,7.20378183 17.7020215,3.81944444 23.1659214,3.81944444 Z" id="形状结合" fill="#1890FF"></path>
                <circle id="椭圆形" fill="#FF8018" cx="48" cy="36.1527778" r="1.66666667"></circle>
                <text id="門友云" font-family="AlibabaPuHuiTiM, Alibaba PuHuiTi" font-size="11.3918052" font-weight="400" fill="#1890FF">
                    <tspan x="14.9233175" y="28.155605">門友云</tspan>
                </text>
            </g>
        </g>
    </g>
</svg>